<?xml version="1.0" encoding="UTF-8" standalone="no"?>
<!DOCTYPE svg PUBLIC "-//W3C//DTD SVG 1.1//EN"
 "http://www.w3.org/Graphics/SVG/1.1/DTD/svg11.dtd">
<!-- Generated by graphviz version 2.40.1 (20161225.0304)
 -->
<!-- Title: G Pages: 1 -->
<svg width="878pt" height="396pt"
 viewBox="0.00 0.00 878.15 396.30" xmlns="http://www.w3.org/2000/svg" xmlns:xlink="http://www.w3.org/1999/xlink">
<g id="graph0" class="graph" transform="scale(1 1) rotate(0) translate(4 392.2964)">
<title>G</title>
<polygon fill="#ffffff" stroke="transparent" points="-4,4 -4,-392.2964 874.1482,-392.2964 874.1482,4 -4,4"/>
<!-- 0―1―2―3―4―5―6―7―8―9―10―11―12―13―14―15 -->
<g id="node1" class="node">
<title>0―1―2―3―4―5―6―7―8―9―10―11―12―13―14―15</title>
<polygon fill="none" stroke="#000000" points="616.5,-36 235.5,-36 235.5,0 616.5,0 616.5,-36"/>
<text text-anchor="middle" x="426" y="-14.3" font-family="Times,serif" font-size="14.00" fill="#000000">0―1―2―3―4―5―6―7―8―9―10―11―12―13―14―15</text>
</g>
<!-- 0―2―4―6―8―10―12―14 -->
<g id="node2" class="node">
<title>0―2―4―6―8―10―12―14</title>
<polygon fill="none" stroke="#000000" points="393,-123 201,-123 201,-87 393,-87 393,-123"/>
<text text-anchor="middle" x="297" y="-101.3" font-family="Times,serif" font-size="14.00" fill="#000000">0―2―4―6―8―10―12―14</text>
</g>
<!-- 0―1―2―3―4―5―6―7―8―9―10―11―12―13―14―15&#45;&gt;0―2―4―6―8―10―12―14 -->
<g id="edge1" class="edge">
<title>0―1―2―3―4―5―6―7―8―9―10―11―12―13―14―15&#45;&gt;0―2―4―6―8―10―12―14</title>
<path fill="none" stroke="#000000" d="M399.2711,-36.0265C377.1315,-50.9578 345.8248,-72.0717 323.6946,-86.9966"/>
<text text-anchor="middle" x="374" y="-57.8" font-family="Times,serif" font-size="14.00" fill="#000000">0</text>
</g>
<!-- 1―3―5―7―9―11―13―15 -->
<g id="node17" class="node">
<title>1―3―5―7―9―11―13―15</title>
<polygon fill="none" stroke="#000000" points="623,-123 431,-123 431,-87 623,-87 623,-123"/>
<text text-anchor="middle" x="527" y="-101.3" font-family="Times,serif" font-size="14.00" fill="#000000">1―3―5―7―9―11―13―15</text>
</g>
<!-- 0―1―2―3―4―5―6―7―8―9―10―11―12―13―14―15&#45;&gt;1―3―5―7―9―11―13―15 -->
<g id="edge16" class="edge">
<title>0―1―2―3―4―5―6―7―8―9―10―11―12―13―14―15&#45;&gt;1―3―5―7―9―11―13―15</title>
<path fill="none" stroke="#000000" d="M446.9273,-36.0265C464.2614,-50.9578 488.7729,-72.0717 506.0995,-86.9966"/>
<text text-anchor="middle" x="487" y="-57.8" font-family="Times,serif" font-size="14.00" fill="#000000">1</text>
</g>
<!-- 0―4―8―12 -->
<g id="node3" class="node">
<title>0―4―8―12</title>
<polygon fill="none" stroke="#000000" points="223,-210 129,-210 129,-174 223,-174 223,-210"/>
<text text-anchor="middle" x="176" y="-188.3" font-family="Times,serif" font-size="14.00" fill="#000000">0―4―8―12</text>
</g>
<!-- 0―2―4―6―8―10―12―14&#45;&gt;0―4―8―12 -->
<g id="edge2" class="edge">
<title>0―2―4―6―8―10―12―14&#45;&gt;0―4―8―12</title>
<path fill="none" stroke="#000000" d="M271.9287,-123.0265C251.1621,-137.9578 221.7969,-159.0717 201.0392,-173.9966"/>
<text text-anchor="middle" x="248" y="-144.8" font-family="Times,serif" font-size="14.00" fill="#000000">0</text>
</g>
<!-- 2―6―10―14 -->
<g id="node10" class="node">
<title>2―6―10―14</title>
<polygon fill="none" stroke="#000000" points="347.5,-210 246.5,-210 246.5,-174 347.5,-174 347.5,-210"/>
<text text-anchor="middle" x="297" y="-188.3" font-family="Times,serif" font-size="14.00" fill="#000000">2―6―10―14</text>
</g>
<!-- 0―2―4―6―8―10―12―14&#45;&gt;2―6―10―14 -->
<g id="edge9" class="edge">
<title>0―2―4―6―8―10―12―14&#45;&gt;2―6―10―14</title>
<path fill="none" stroke="#000000" d="M297,-123.0265C297,-137.9578 297,-159.0717 297,-173.9966"/>
<text text-anchor="middle" x="301" y="-144.8" font-family="Times,serif" font-size="14.00" fill="#000000">1</text>
</g>
<!-- 0―8 -->
<g id="node4" class="node">
<title>0―8</title>
<polygon fill="none" stroke="#000000" points="99,-297 45,-297 45,-261 99,-261 99,-297"/>
<text text-anchor="middle" x="72" y="-275.3" font-family="Times,serif" font-size="14.00" fill="#000000">0―8</text>
</g>
<!-- 0―4―8―12&#45;&gt;0―8 -->
<g id="edge3" class="edge">
<title>0―4―8―12&#45;&gt;0―8</title>
<path fill="none" stroke="#000000" d="M154.4511,-210.0265C136.6022,-224.9578 111.3626,-246.0717 93.5213,-260.9966"/>
<text text-anchor="middle" x="135" y="-231.8" font-family="Times,serif" font-size="14.00" fill="#000000">0</text>
</g>
<!-- 4―12 -->
<g id="node7" class="node">
<title>4―12</title>
<polygon fill="none" stroke="#000000" points="203,-297 149,-297 149,-261 203,-261 203,-297"/>
<text text-anchor="middle" x="176" y="-275.3" font-family="Times,serif" font-size="14.00" fill="#000000">4―12</text>
</g>
<!-- 0―4―8―12&#45;&gt;4―12 -->
<g id="edge6" class="edge">
<title>0―4―8―12&#45;&gt;4―12</title>
<path fill="none" stroke="#000000" d="M176,-210.0265C176,-224.9578 176,-246.0717 176,-260.9966"/>
<text text-anchor="middle" x="180" y="-231.8" font-family="Times,serif" font-size="14.00" fill="#000000">1</text>
</g>
<!-- 0 -->
<g id="node5" class="node">
<title>0</title>
<ellipse fill="none" stroke="#000000" cx="18" cy="-368.1482" rx="18" ry="18"/>
<text text-anchor="middle" x="18" y="-364.4482" font-family="Times,serif" font-size="14.00" fill="#000000">0</text>
</g>
<!-- 0―8&#45;&gt;0 -->
<g id="edge4" class="edge">
<title>0―8&#45;&gt;0</title>
<path fill="none" stroke="#000000" d="M61.0723,-297.0405C51.2104,-313.3213 36.8508,-337.0276 27.4679,-352.5178"/>
<text text-anchor="middle" x="54" y="-318.8" font-family="Times,serif" font-size="14.00" fill="#000000">0</text>
</g>
<!-- 8 -->
<g id="node6" class="node">
<title>8</title>
<ellipse fill="none" stroke="#000000" cx="72" cy="-368.1482" rx="18" ry="18"/>
<text text-anchor="middle" x="72" y="-364.4482" font-family="Times,serif" font-size="14.00" fill="#000000">8</text>
</g>
<!-- 0―8&#45;&gt;8 -->
<g id="edge5" class="edge">
<title>0―8&#45;&gt;8</title>
<path fill="none" stroke="#000000" d="M72,-297.0405C72,-312.5073 72,-334.6755 72,-350.1346"/>
<text text-anchor="middle" x="76" y="-318.8" font-family="Times,serif" font-size="14.00" fill="#000000">1</text>
</g>
<!-- 4 -->
<g id="node8" class="node">
<title>4</title>
<ellipse fill="none" stroke="#000000" cx="126" cy="-368.1482" rx="18" ry="18"/>
<text text-anchor="middle" x="126" y="-364.4482" font-family="Times,serif" font-size="14.00" fill="#000000">4</text>
</g>
<!-- 4―12&#45;&gt;4 -->
<g id="edge7" class="edge">
<title>4―12&#45;&gt;4</title>
<path fill="none" stroke="#000000" d="M165.8818,-297.0405C156.8075,-313.2196 143.6205,-336.7315 134.93,-352.2264"/>
<text text-anchor="middle" x="160" y="-318.8" font-family="Times,serif" font-size="14.00" fill="#000000">0</text>
</g>
<!-- 12 -->
<g id="node9" class="node">
<title>12</title>
<ellipse fill="none" stroke="#000000" cx="182" cy="-368.1482" rx="20.2975" ry="20.2975"/>
<text text-anchor="middle" x="182" y="-364.4482" font-family="Times,serif" font-size="14.00" fill="#000000">12</text>
</g>
<!-- 4―12&#45;&gt;12 -->
<g id="edge8" class="edge">
<title>4―12&#45;&gt;12</title>
<path fill="none" stroke="#000000" d="M177.2142,-297.0405C178.2072,-311.795 179.6107,-332.6479 180.6411,-347.9574"/>
<text text-anchor="middle" x="184" y="-318.8" font-family="Times,serif" font-size="14.00" fill="#000000">1</text>
</g>
<!-- 2―10 -->
<g id="node11" class="node">
<title>2―10</title>
<polygon fill="none" stroke="#000000" points="308,-297 254,-297 254,-261 308,-261 308,-297"/>
<text text-anchor="middle" x="281" y="-275.3" font-family="Times,serif" font-size="14.00" fill="#000000">2―10</text>
</g>
<!-- 2―6―10―14&#45;&gt;2―10 -->
<g id="edge10" class="edge">
<title>2―6―10―14&#45;&gt;2―10</title>
<path fill="none" stroke="#000000" d="M293.6848,-210.0265C290.9388,-224.9578 287.0558,-246.0717 284.311,-260.9966"/>
<text text-anchor="middle" x="294" y="-231.8" font-family="Times,serif" font-size="14.00" fill="#000000">0</text>
</g>
<!-- 6―14 -->
<g id="node14" class="node">
<title>6―14</title>
<polygon fill="none" stroke="#000000" points="380,-297 326,-297 326,-261 380,-261 380,-297"/>
<text text-anchor="middle" x="353" y="-275.3" font-family="Times,serif" font-size="14.00" fill="#000000">6―14</text>
</g>
<!-- 2―6―10―14&#45;&gt;6―14 -->
<g id="edge13" class="edge">
<title>2―6―10―14&#45;&gt;6―14</title>
<path fill="none" stroke="#000000" d="M308.6032,-210.0265C318.2142,-224.9578 331.8048,-246.0717 341.4116,-260.9966"/>
<text text-anchor="middle" x="333" y="-231.8" font-family="Times,serif" font-size="14.00" fill="#000000">1</text>
</g>
<!-- 2 -->
<g id="node12" class="node">
<title>2</title>
<ellipse fill="none" stroke="#000000" cx="238" cy="-368.1482" rx="18" ry="18"/>
<text text-anchor="middle" x="238" y="-364.4482" font-family="Times,serif" font-size="14.00" fill="#000000">2</text>
</g>
<!-- 2―10&#45;&gt;2 -->
<g id="edge11" class="edge">
<title>2―10&#45;&gt;2</title>
<path fill="none" stroke="#000000" d="M272.2983,-297.0405C264.5435,-313.1178 253.2961,-336.4361 245.8213,-351.9331"/>
<text text-anchor="middle" x="268" y="-318.8" font-family="Times,serif" font-size="14.00" fill="#000000">0</text>
</g>
<!-- 10 -->
<g id="node13" class="node">
<title>10</title>
<ellipse fill="none" stroke="#000000" cx="294" cy="-368.1482" rx="20.2975" ry="20.2975"/>
<text text-anchor="middle" x="294" y="-364.4482" font-family="Times,serif" font-size="14.00" fill="#000000">10</text>
</g>
<!-- 2―10&#45;&gt;10 -->
<g id="edge12" class="edge">
<title>2―10&#45;&gt;10</title>
<path fill="none" stroke="#000000" d="M283.6307,-297.0405C285.7823,-311.795 288.8232,-332.6479 291.0557,-347.9574"/>
<text text-anchor="middle" x="293" y="-318.8" font-family="Times,serif" font-size="14.00" fill="#000000">1</text>
</g>
<!-- 6 -->
<g id="node15" class="node">
<title>6</title>
<ellipse fill="none" stroke="#000000" cx="350" cy="-368.1482" rx="18" ry="18"/>
<text text-anchor="middle" x="350" y="-364.4482" font-family="Times,serif" font-size="14.00" fill="#000000">6</text>
</g>
<!-- 6―14&#45;&gt;6 -->
<g id="edge14" class="edge">
<title>6―14&#45;&gt;6</title>
<path fill="none" stroke="#000000" d="M352.3929,-297.0405C351.8724,-312.5073 351.1264,-334.6755 350.6062,-350.1346"/>
<text text-anchor="middle" x="356" y="-318.8" font-family="Times,serif" font-size="14.00" fill="#000000">0</text>
</g>
<!-- 14 -->
<g id="node16" class="node">
<title>14</title>
<ellipse fill="none" stroke="#000000" cx="406" cy="-368.1482" rx="20.2975" ry="20.2975"/>
<text text-anchor="middle" x="406" y="-364.4482" font-family="Times,serif" font-size="14.00" fill="#000000">14</text>
</g>
<!-- 6―14&#45;&gt;14 -->
<g id="edge15" class="edge">
<title>6―14&#45;&gt;14</title>
<path fill="none" stroke="#000000" d="M363.7253,-297.0405C373.0416,-312.7108 386.4475,-335.26 395.6513,-350.7413"/>
<text text-anchor="middle" x="387" y="-318.8" font-family="Times,serif" font-size="14.00" fill="#000000">1</text>
</g>
<!-- 1―5―9―13 -->
<g id="node18" class="node">
<title>1―5―9―13</title>
<polygon fill="none" stroke="#000000" points="574,-210 480,-210 480,-174 574,-174 574,-210"/>
<text text-anchor="middle" x="527" y="-188.3" font-family="Times,serif" font-size="14.00" fill="#000000">1―5―9―13</text>
</g>
<!-- 1―3―5―7―9―11―13―15&#45;&gt;1―5―9―13 -->
<g id="edge17" class="edge">
<title>1―3―5―7―9―11―13―15&#45;&gt;1―5―9―13</title>
<path fill="none" stroke="#000000" d="M527,-123.0265C527,-137.9578 527,-159.0717 527,-173.9966"/>
<text text-anchor="middle" x="531" y="-144.8" font-family="Times,serif" font-size="14.00" fill="#000000">0</text>
</g>
<!-- 3―7―11―15 -->
<g id="node25" class="node">
<title>3―7―11―15</title>
<polygon fill="none" stroke="#000000" points="752.5,-210 651.5,-210 651.5,-174 752.5,-174 752.5,-210"/>
<text text-anchor="middle" x="702" y="-188.3" font-family="Times,serif" font-size="14.00" fill="#000000">3―7―11―15</text>
</g>
<!-- 1―3―5―7―9―11―13―15&#45;&gt;3―7―11―15 -->
<g id="edge24" class="edge">
<title>1―3―5―7―9―11―13―15&#45;&gt;3―7―11―15</title>
<path fill="none" stroke="#000000" d="M563.2601,-123.0265C593.2944,-137.9578 635.7648,-159.0717 665.7863,-173.9966"/>
<text text-anchor="middle" x="629" y="-144.8" font-family="Times,serif" font-size="14.00" fill="#000000">1</text>
</g>
<!-- 1―9 -->
<g id="node19" class="node">
<title>1―9</title>
<polygon fill="none" stroke="#000000" points="534,-297 480,-297 480,-261 534,-261 534,-297"/>
<text text-anchor="middle" x="507" y="-275.3" font-family="Times,serif" font-size="14.00" fill="#000000">1―9</text>
</g>
<!-- 1―5―9―13&#45;&gt;1―9 -->
<g id="edge18" class="edge">
<title>1―5―9―13&#45;&gt;1―9</title>
<path fill="none" stroke="#000000" d="M522.856,-210.0265C519.4235,-224.9578 514.5697,-246.0717 511.1387,-260.9966"/>
<text text-anchor="middle" x="523" y="-231.8" font-family="Times,serif" font-size="14.00" fill="#000000">0</text>
</g>
<!-- 5―13 -->
<g id="node22" class="node">
<title>5―13</title>
<polygon fill="none" stroke="#000000" points="606,-297 552,-297 552,-261 606,-261 606,-297"/>
<text text-anchor="middle" x="579" y="-275.3" font-family="Times,serif" font-size="14.00" fill="#000000">5―13</text>
</g>
<!-- 1―5―9―13&#45;&gt;5―13 -->
<g id="edge21" class="edge">
<title>1―5―9―13&#45;&gt;5―13</title>
<path fill="none" stroke="#000000" d="M537.7744,-210.0265C546.6989,-224.9578 559.3187,-246.0717 568.2394,-260.9966"/>
<text text-anchor="middle" x="561" y="-231.8" font-family="Times,serif" font-size="14.00" fill="#000000">1</text>
</g>
<!-- 1 -->
<g id="node20" class="node">
<title>1</title>
<ellipse fill="none" stroke="#000000" cx="462" cy="-368.1482" rx="18" ry="18"/>
<text text-anchor="middle" x="462" y="-364.4482" font-family="Times,serif" font-size="14.00" fill="#000000">1</text>
</g>
<!-- 1―9&#45;&gt;1 -->
<g id="edge19" class="edge">
<title>1―9&#45;&gt;1</title>
<path fill="none" stroke="#000000" d="M497.8936,-297.0405C489.7781,-313.1178 478.0076,-336.4361 470.185,-351.9331"/>
<text text-anchor="middle" x="493" y="-318.8" font-family="Times,serif" font-size="14.00" fill="#000000">0</text>
</g>
<!-- 9 -->
<g id="node21" class="node">
<title>9</title>
<ellipse fill="none" stroke="#000000" cx="516" cy="-368.1482" rx="18" ry="18"/>
<text text-anchor="middle" x="516" y="-364.4482" font-family="Times,serif" font-size="14.00" fill="#000000">9</text>
</g>
<!-- 1―9&#45;&gt;9 -->
<g id="edge20" class="edge">
<title>1―9&#45;&gt;9</title>
<path fill="none" stroke="#000000" d="M508.8213,-297.0405C510.3827,-312.5073 512.6207,-334.6755 514.1814,-350.1346"/>
<text text-anchor="middle" x="517" y="-318.8" font-family="Times,serif" font-size="14.00" fill="#000000">1</text>
</g>
<!-- 5 -->
<g id="node23" class="node">
<title>5</title>
<ellipse fill="none" stroke="#000000" cx="570" cy="-368.1482" rx="18" ry="18"/>
<text text-anchor="middle" x="570" y="-364.4482" font-family="Times,serif" font-size="14.00" fill="#000000">5</text>
</g>
<!-- 5―13&#45;&gt;5 -->
<g id="edge22" class="edge">
<title>5―13&#45;&gt;5</title>
<path fill="none" stroke="#000000" d="M577.1787,-297.0405C575.6173,-312.5073 573.3793,-334.6755 571.8186,-350.1346"/>
<text text-anchor="middle" x="580" y="-318.8" font-family="Times,serif" font-size="14.00" fill="#000000">0</text>
</g>
<!-- 13 -->
<g id="node24" class="node">
<title>13</title>
<ellipse fill="none" stroke="#000000" cx="626" cy="-368.1482" rx="20.2975" ry="20.2975"/>
<text text-anchor="middle" x="626" y="-364.4482" font-family="Times,serif" font-size="14.00" fill="#000000">13</text>
</g>
<!-- 5―13&#45;&gt;13 -->
<g id="edge23" class="edge">
<title>5―13&#45;&gt;13</title>
<path fill="none" stroke="#000000" d="M588.5112,-297.0405C596.6654,-312.5073 608.3528,-334.6755 616.503,-350.1346"/>
<text text-anchor="middle" x="610" y="-318.8" font-family="Times,serif" font-size="14.00" fill="#000000">1</text>
</g>
<!-- 3―11 -->
<g id="node26" class="node">
<title>3―11</title>
<polygon fill="none" stroke="#000000" points="729,-297 675,-297 675,-261 729,-261 729,-297"/>
<text text-anchor="middle" x="702" y="-275.3" font-family="Times,serif" font-size="14.00" fill="#000000">3―11</text>
</g>
<!-- 3―7―11―15&#45;&gt;3―11 -->
<g id="edge25" class="edge">
<title>3―7―11―15&#45;&gt;3―11</title>
<path fill="none" stroke="#000000" d="M702,-210.0265C702,-224.9578 702,-246.0717 702,-260.9966"/>
<text text-anchor="middle" x="706" y="-231.8" font-family="Times,serif" font-size="14.00" fill="#000000">0</text>
</g>
<!-- 7―15 -->
<g id="node29" class="node">
<title>7―15</title>
<polygon fill="none" stroke="#000000" points="821,-297 767,-297 767,-261 821,-261 821,-297"/>
<text text-anchor="middle" x="794" y="-275.3" font-family="Times,serif" font-size="14.00" fill="#000000">7―15</text>
</g>
<!-- 3―7―11―15&#45;&gt;7―15 -->
<g id="edge28" class="edge">
<title>3―7―11―15&#45;&gt;7―15</title>
<path fill="none" stroke="#000000" d="M721.0625,-210.0265C736.8519,-224.9578 759.1792,-246.0717 774.962,-260.9966"/>
<text text-anchor="middle" x="758" y="-231.8" font-family="Times,serif" font-size="14.00" fill="#000000">1</text>
</g>
<!-- 3 -->
<g id="node27" class="node">
<title>3</title>
<ellipse fill="none" stroke="#000000" cx="682" cy="-368.1482" rx="18" ry="18"/>
<text text-anchor="middle" x="682" y="-364.4482" font-family="Times,serif" font-size="14.00" fill="#000000">3</text>
</g>
<!-- 3―11&#45;&gt;3 -->
<g id="edge26" class="edge">
<title>3―11&#45;&gt;3</title>
<path fill="none" stroke="#000000" d="M697.9527,-297.0405C694.46,-312.609 689.4439,-334.9675 685.973,-350.4388"/>
<text text-anchor="middle" x="698" y="-318.8" font-family="Times,serif" font-size="14.00" fill="#000000">0</text>
</g>
<!-- 11 -->
<g id="node28" class="node">
<title>11</title>
<ellipse fill="none" stroke="#000000" cx="738" cy="-368.1482" rx="20.2975" ry="20.2975"/>
<text text-anchor="middle" x="738" y="-364.4482" font-family="Times,serif" font-size="14.00" fill="#000000">11</text>
</g>
<!-- 3―11&#45;&gt;11 -->
<g id="edge27" class="edge">
<title>3―11&#45;&gt;11</title>
<path fill="none" stroke="#000000" d="M709.2851,-297.0405C715.4077,-312.202 724.1307,-333.8031 730.3529,-349.2115"/>
<text text-anchor="middle" x="727" y="-318.8" font-family="Times,serif" font-size="14.00" fill="#000000">1</text>
</g>
<!-- 7 -->
<g id="node30" class="node">
<title>7</title>
<ellipse fill="none" stroke="#000000" cx="794" cy="-368.1482" rx="18" ry="18"/>
<text text-anchor="middle" x="794" y="-364.4482" font-family="Times,serif" font-size="14.00" fill="#000000">7</text>
</g>
<!-- 7―15&#45;&gt;7 -->
<g id="edge29" class="edge">
<title>7―15&#45;&gt;7</title>
<path fill="none" stroke="#000000" d="M794,-297.0405C794,-312.5073 794,-334.6755 794,-350.1346"/>
<text text-anchor="middle" x="798" y="-318.8" font-family="Times,serif" font-size="14.00" fill="#000000">0</text>
</g>
<!-- 15 -->
<g id="node31" class="node">
<title>15</title>
<ellipse fill="none" stroke="#000000" cx="850" cy="-368.1482" rx="20.2975" ry="20.2975"/>
<text text-anchor="middle" x="850" y="-364.4482" font-family="Times,serif" font-size="14.00" fill="#000000">15</text>
</g>
<!-- 7―15&#45;&gt;15 -->
<g id="edge30" class="edge">
<title>7―15&#45;&gt;15</title>
<path fill="none" stroke="#000000" d="M805.3324,-297.0405C815.2399,-312.8126 829.5249,-335.5532 839.2544,-351.042"/>
<text text-anchor="middle" x="829" y="-318.8" font-family="Times,serif" font-size="14.00" fill="#000000">1</text>
</g>
</g>
</svg>
